<svg width="380" height="385" viewBox="0 0 380 385" fill="none" xmlns="http://www.w3.org/2000/svg">
<circle cx="190" cy="190" r="187.5" fill="white" stroke="#222222" stroke-width="5"/>
<mask id="mask0" style="mask-type:alpha" maskUnits="userSpaceOnUse" x="0" y="0" width="380" height="380">
<circle cx="190" cy="190" r="187.5" fill="white" stroke="black" stroke-width="5"/>
</mask>
<g mask="url(#mask0)">
<g clip-path="url(#clip0)">
<path d="M244 362.5C229.6 342.5 218.333 303.834 217 284.5L148.5 255L120 362.5H244Z" fill="#F9C9B6" stroke="black" stroke-width="4"/>
<mask id="mask1" style="mask-type:alpha" maskUnits="userSpaceOnUse" x="120" y="255" width="124" height="118">
<path d="M244 372.5C229.6 352.5 218.333 303.834 217 284.5L148.5 255L120 372.5H244Z" fill="#AC6651"/>
</mask>
<g mask="url(#mask1)">
<g style="mix-blend-mode:multiply">
<ellipse cx="214" cy="253" rx="59" ry="54" fill="black"/>
</g>
</g>
<mask id="path-6-inside-1" fill="white">
<path fill-rule="evenodd" clip-rule="evenodd" d="M273.887 193.917C273.86 193.802 273.832 193.686 273.804 193.57C273.777 193.454 273.749 193.339 273.72 193.223L257.324 124.786C257.307 124.718 257.291 124.651 257.275 124.583C257.259 124.515 257.242 124.447 257.226 124.379L257.153 124.076L257.152 124.076C246.934 82.6315 205.157 57.1479 163.583 67.1087C122.009 77.0696 96.3164 118.718 105.989 160.293L105.987 160.294L122.979 231.212L122.993 231.208C133.595 272.113 175.063 297.149 216.33 287.262C257.598 277.375 283.217 236.265 274.132 194.997L274.145 194.994L273.887 193.917Z"/>
</mask>
<path fill-rule="evenodd" clip-rule="evenodd" d="M273.887 193.917C273.86 193.802 273.832 193.686 273.804 193.57C273.777 193.454 273.749 193.339 273.72 193.223L257.324 124.786C257.307 124.718 257.291 124.651 257.275 124.583C257.259 124.515 257.242 124.447 257.226 124.379L257.153 124.076L257.152 124.076C246.934 82.6315 205.157 57.1479 163.583 67.1087C122.009 77.0696 96.3164 118.718 105.989 160.293L105.987 160.294L122.979 231.212L122.993 231.208C133.595 272.113 175.063 297.149 216.33 287.262C257.598 277.375 283.217 236.265 274.132 194.997L274.145 194.994L273.887 193.917Z" fill="#F9C9B6"/>
<path d="M273.887 193.917L269.993 194.832L269.995 194.841L269.997 194.849L273.887 193.917ZM273.72 193.223L269.831 194.155L269.833 194.164L269.835 194.173L273.72 193.223ZM257.324 124.786L253.431 125.708L253.434 125.718L257.324 124.786ZM257.226 124.379L253.336 125.311L253.339 125.322L257.226 124.379ZM257.153 124.076L261.043 123.144L260.112 119.256L256.223 120.186L257.153 124.076ZM257.152 124.076L253.268 125.034L254.219 128.89L258.082 127.967L257.152 124.076ZM163.583 67.1087L162.651 63.2188L163.583 67.1087ZM105.989 160.293L106.923 164.183L110.785 163.255L109.885 159.387L105.989 160.293ZM105.987 160.294L105.053 156.405L101.166 157.338L102.097 161.226L105.987 160.294ZM122.979 231.212L119.089 232.144L120.021 236.035L123.912 235.101L122.979 231.212ZM122.993 231.208L126.865 230.205L125.879 226.402L122.059 227.319L122.993 231.208ZM216.33 287.262L215.398 283.372H215.398L216.33 287.262ZM274.132 194.997L273.201 191.107L269.382 192.021L270.226 195.857L274.132 194.997ZM274.145 194.994L275.076 198.884L278.967 197.952L278.035 194.062L274.145 194.994ZM277.781 193.003C277.752 192.881 277.723 192.76 277.694 192.638L269.915 194.502C269.941 194.612 269.967 194.722 269.993 194.832L277.781 193.003ZM277.694 192.638C277.665 192.517 277.636 192.395 277.606 192.274L269.835 194.173C269.861 194.282 269.888 194.392 269.915 194.502L277.694 192.638ZM253.434 125.718L269.831 194.155L277.61 192.291L261.213 123.854L253.434 125.718ZM261.216 123.864C261.199 123.794 261.182 123.722 261.165 123.651L253.385 125.515C253.401 125.579 253.416 125.643 253.431 125.708L261.216 123.864ZM261.165 123.651C261.148 123.58 261.131 123.509 261.113 123.437L253.339 125.322C253.354 125.386 253.37 125.45 253.385 125.515L261.165 123.651ZM253.263 125.008L253.336 125.311L261.116 123.447L261.043 123.144L253.263 125.008ZM258.082 127.967L258.084 127.966L256.223 120.186L256.222 120.186L258.082 127.967ZM261.036 123.119C250.292 79.5404 206.365 52.7453 162.651 63.2188L164.515 70.9986C203.949 61.5505 243.576 85.7225 253.268 125.034L261.036 123.119ZM162.651 63.2188C118.937 73.6923 91.9225 117.484 102.093 161.2L109.885 159.387C100.71 119.952 125.081 80.4468 164.515 70.9986L162.651 63.2188ZM106.921 164.183L106.923 164.183L105.055 156.404L105.053 156.405L106.921 164.183ZM126.869 230.28L109.877 159.362L102.097 161.226L119.089 232.144L126.869 230.28ZM122.059 227.319L122.045 227.322L123.912 235.101L123.926 235.098L122.059 227.319ZM119.121 232.212C130.269 275.223 173.87 301.548 217.262 291.152L215.398 283.372C176.255 292.751 136.921 269.003 126.865 230.205L119.121 232.212ZM217.262 291.152C260.654 280.756 287.592 237.53 278.039 194.137L270.226 195.857C278.843 235 254.542 273.994 215.398 283.372L217.262 291.152ZM273.213 191.104L273.201 191.107L275.064 198.887L275.076 198.884L273.213 191.104ZM269.997 194.849L270.255 195.926L278.035 194.062L277.777 192.985L269.997 194.849Z" fill="black" mask="url(#path-6-inside-1)"/>
</g>
<path d="M243.921 216.33C243.75 214.262 241.637 213.111 239.845 213.817C235.616 215.483 221.627 220.783 211.763 222.14C200.94 223.628 184.551 221.82 179.807 221.231C177.877 220.992 176.158 222.65 176.491 224.665C177.142 228.607 178.484 232.408 180.459 235.891C182.661 239.775 185.607 243.187 189.128 245.933C192.649 248.678 196.676 250.704 200.98 251.893C205.283 253.082 209.779 253.412 214.21 252.864C218.641 252.316 222.921 250.9 226.805 248.698C230.689 246.495 234.102 243.55 236.847 240.029C239.593 236.508 241.618 232.481 242.807 228.177C243.873 224.321 244.249 220.31 243.921 216.33Z" fill="black" stroke="black" stroke-width="4"/>
<mask id="mask2" style="mask-type:alpha" maskUnits="userSpaceOnUse" x="178" y="215" width="65" height="37">
<path d="M241.793 215.192C242.309 219.362 241.999 223.594 240.88 227.644C239.76 231.695 237.854 235.485 235.27 238.799C232.686 242.113 229.474 244.885 225.819 246.958C222.163 249.031 218.135 250.363 213.965 250.879C209.794 251.395 205.563 251.084 201.512 249.965C197.462 248.846 193.671 246.94 190.358 244.356C187.044 241.771 184.271 238.56 182.199 234.904C180.126 231.249 178.794 227.221 178.278 223.05L241.793 215.192Z" fill="#171921"/>
</mask>
<g mask="url(#mask2)">
<circle cx="214.522" cy="255.314" r="21.5" transform="rotate(-7.05286 214.522 255.314)" fill="#FC909F"/>
</g>
<path d="M219 132.214C224.667 129.548 238 127.114 246 138.714" stroke="black" stroke-width="4" stroke-linecap="round"/>
<path d="M143.579 157.521C145.65 151.61 153.261 140.396 167.142 142.822" stroke="black" stroke-width="4" stroke-linecap="round"/>
<path fill-rule="evenodd" clip-rule="evenodd" d="M157.287 173.072C157.401 173.885 158.434 174.066 159.009 173.48C161.474 170.964 165.264 169.116 169.663 168.593C172.258 168.285 174.754 168.475 176.979 169.065C177.733 169.266 178.474 168.629 178.21 167.895C176.545 163.249 171.845 160.196 166.736 160.803C160.794 161.509 156.55 166.897 157.256 172.839C157.266 172.917 157.276 172.995 157.287 173.072Z" fill="black"/>
<path fill-rule="evenodd" clip-rule="evenodd" d="M221.385 163.073C221.498 163.886 222.531 164.067 223.106 163.482C225.549 160.996 229.298 159.17 233.649 158.653C236.213 158.348 238.681 158.535 240.88 159.117C241.634 159.316 242.375 158.679 242.111 157.946C240.456 153.352 235.804 150.335 230.748 150.935C224.863 151.635 220.658 156.973 221.357 162.859C221.366 162.93 221.375 163.002 221.385 163.073Z" fill="black"/>
<path d="M200.278 178.927C205.498 176.94 214.601 177.54 214.041 187.64C213.543 196.615 204.334 198.398 201.4 196.305" stroke="black" stroke-width="4"/>
<path d="M265.178 78.3965C256.856 118.294 158.5 123.896 138.678 123.896C86.6557 129.823 111.626 192.262 121.178 223.396C113.678 224.396 114.678 233.396 85.6782 161.896C62.4782 104.696 128.184 69.8337 177 57.9995C225.816 46.1653 244.5 29.502 244.5 29.502C265.178 38 270.117 54.7185 265.178 78.3965Z" fill="black"/>
<path d="M260.135 151.947L244.316 98.5069L254.354 89.3644C265.11 126.452 265.602 147.988 260.135 151.947Z" fill="black"/>
<path d="M135 197C129.4 169.8 115.334 174.667 106 176L96.0004 132L136.585 123.506C137.337 123.266 138.141 123.095 139 123L136.585 123.506C118.434 129.299 130.957 175.796 146 195L135 197Z" fill="black"/>
<path d="M79.9895 94.3632C88.8349 89.9091 99.2813 92.4873 103.399 94.3331L91.6281 109.213C94.6633 104.357 85.1337 97.2897 79.9895 94.3632Z" fill="black"/>
<path d="M65 111.5C76.6 104.7 87.8333 107 92 109L87.5 124.5C86.3 116.1 72 112.333 65 111.5Z" fill="black"/>
<path d="M322.69 382.5H51.227C67.4369 353.707 90.4292 335.364 127.556 326.9C129.052 326.558 131.144 326.652 133.834 327.278C136.488 327.895 139.53 328.984 142.827 330.433C149.421 333.331 156.794 337.564 163.737 341.958C170.666 346.344 177.102 350.851 181.81 354.264C184.163 355.969 186.08 357.4 187.408 358.402C188.072 358.903 188.588 359.297 188.937 359.565C189.112 359.699 189.244 359.802 189.333 359.87L189.432 359.947L189.457 359.966L189.463 359.971L189.464 359.972C189.464 359.972 189.464 359.972 189.54 359.875L189.464 359.972L191.616 361.648L193.098 359.359L193.098 359.358L193.099 359.358L193.1 359.356L193.109 359.342L193.149 359.281C193.185 359.226 193.241 359.142 193.315 359.03C193.464 358.807 193.688 358.476 193.981 358.053C194.566 357.208 195.427 355.996 196.518 354.546C198.703 351.643 201.794 347.81 205.43 344.066C209.079 340.309 213.204 336.717 217.451 334.224C221.718 331.719 225.865 330.465 229.666 330.977C271.58 336.629 302.492 355.061 322.69 382.5Z" fill="#FFE437" stroke="#222222" stroke-width="5"/>
<path d="M115.613 329.085L120.779 309.853C120.989 309.074 121.996 308.854 122.54 309.449C137.403 325.714 156.16 325.076 162.385 324.33C163.23 324.228 163.892 325.153 163.495 325.906L150.338 350.859C150.136 351.241 149.724 351.452 149.3 351.364C145.352 350.541 125.677 345.732 115.729 329.867C115.583 329.635 115.542 329.35 115.613 329.085Z" fill="#FFEF8C" stroke="black" stroke-width="4"/>
<path d="M246.195 328.981L234.614 309.499C234.221 308.837 233.252 308.848 232.833 309.494C227.096 318.33 217.202 322.4 213.742 323.602C213.119 323.819 212.834 324.558 213.17 325.125L226.673 347.94C226.874 348.281 227.255 348.465 227.635 348.357C229.77 347.749 237.095 344.685 246.182 330.021C246.377 329.706 246.384 329.3 246.195 328.981Z" fill="#FFEF8C" stroke="black" stroke-width="4"/>
<path d="M172.5 346.5L163.5 325L156.5 340L172.5 346.5Z" fill="black" stroke="black" stroke-width="4" stroke-linejoin="round"/>
<path d="M204 345.5L213 324L220 339L204 345.5Z" fill="black" stroke="black" stroke-width="4" stroke-linejoin="round"/>
<path d="M133.5 306L121.5 309L131.5 315.5L133.5 306Z" fill="black" stroke="black" stroke-width="4" stroke-linejoin="round"/>
<path d="M223 306L234 309L227 315.5L223 306Z" fill="black" stroke="black" stroke-width="4" stroke-linejoin="round"/>
<path d="M124.5 180.176C122.17 179.408 119.655 179 117.08 179C106.587 179 98.0801 185.5 99.08 197.5C100.122 210 107.587 214.5 118.08 214.5C119.248 214.5 120.391 214.397 121.5 214.201C122.711 213.987 123.881 213.661 125 213.235" stroke="black" stroke-width="8"/>
<path d="M125.5 213.036C123.22 213.979 120.713 214.5 118.08 214.5C107.587 214.5 100.122 210 99.08 197.5C98.0801 185.5 106.587 179 117.08 179C120.217 179 123.267 179.606 126 180.73L125.5 213.036Z" fill="#F9C9B6"/>
<path d="M121.5 187.5C117.5 185.667 108.7 184.7 105.5 195.5" stroke="black" stroke-width="4"/>
<path d="M111 188C113.167 189.833 117.3 195.5 116.5 203.5" stroke="black" stroke-width="4"/>
</g>
<defs>
<clipPath id="clip0">
<rect width="200" height="320" fill="white" transform="translate(90 43)"/>
</clipPath>
</defs>
</svg>
