<svg width="250" height="250" viewBox="0 0 250 250" fill="none" xmlns="http://www.w3.org/2000/svg">
<rect width="250" height="250" rx="70" fill="#EC4242"/>
<path d="M139.745 70.5875C137.419 64.8111 130.352 61.8327 123.96 63.9352C117.569 66.0376 114.274 72.4247 116.6 78.2011L157.643 180.118C159.969 185.895 167.036 188.873 173.428 186.771C179.819 184.668 183.114 178.281 180.788 172.505L139.745 70.5875Z" fill="white"/>
<path d="M133.452 78.0728C135.778 72.2964 132.483 65.9093 126.091 63.8068C119.7 61.7044 112.633 64.6827 110.307 70.4591L69.2121 172.505C66.8858 178.281 70.1812 184.668 76.5725 186.771C82.9637 188.873 90.0307 185.895 92.3569 180.118L133.452 78.0728Z" fill="white"/>
<path d="M124.692 62.701C131.324 62.701 135.191 64.788 136.502 67.0141C137.813 69.2402 131.324 71.3271 124.692 71.3271C118.061 71.3271 110.773 69.29 112.95 67.0141C115.128 64.7382 118.061 62.701 124.692 62.701Z" fill="white"/>
<path d="M153.941 137.275H125C118.199 137.275 112.685 142.258 112.685 148.405C112.685 154.552 118.199 159.535 125 159.535H153.941C160.742 159.535 166.256 154.552 166.256 148.405C166.256 142.258 160.742 137.275 153.941 137.275Z" fill="white"/>
</svg>
