<svg width="250" height="250" viewBox="0 0 250 250" fill="none" xmlns="http://www.w3.org/2000/svg">
<rect width="250" height="250" rx="70" fill="white"/>
<g clip-path="url(#clip0)">
<path d="M210.449 39.5508H39.5508V210.449H210.449V39.5508Z" fill="white"/>
<path d="M86.5478 116.455C103.065 116.455 116.455 103.065 116.455 86.5478C116.455 70.0305 103.065 56.6406 86.5478 56.6406C70.0305 56.6406 56.6406 70.0305 56.6406 86.5478C56.6406 103.065 70.0305 116.455 86.5478 116.455Z" stroke="#3E3E3E" stroke-width="7.32422"/>
<path d="M86.5478 193.359C103.065 193.359 116.455 179.969 116.455 163.452C116.455 146.935 103.065 133.545 86.5478 133.545C70.0305 133.545 56.6406 146.935 56.6406 163.452C56.6406 179.969 70.0305 193.359 86.5478 193.359Z" stroke="#3E3E3E" stroke-width="7.32422"/>
<path d="M163.452 193.359C179.969 193.359 193.359 179.969 193.359 163.452C193.359 146.935 179.969 133.545 163.452 133.545C146.935 133.545 133.545 146.935 133.545 163.452C133.545 179.969 146.935 193.359 163.452 193.359Z" stroke="#3E3E3E" stroke-width="7.32422"/>
<path d="M163.452 116.455C179.969 116.455 193.359 103.065 193.359 86.5478C193.359 70.0305 179.969 56.6406 163.452 56.6406C146.935 56.6406 133.545 70.0305 133.545 86.5478C133.545 103.065 146.935 116.455 163.452 116.455Z" stroke="#3E3E3E" stroke-width="7.32422"/>
<path d="M89.1113 73.7305C89.1113 71.8428 87.5811 70.3125 85.6934 70.3125C83.8057 70.3125 82.2754 71.8428 82.2754 73.7305V83.9844C82.2754 85.8721 83.8057 87.4023 85.6934 87.4023C87.5811 87.4023 89.1113 85.8721 89.1113 83.9844V73.7305Z" fill="#3E3E3E"/>
<path d="M89.1196 97.2601C89.1196 95.6278 87.5875 94.3046 85.6975 94.3046C83.8075 94.3046 82.2754 95.6278 82.2754 97.2601V103.171C82.2754 104.803 83.8075 106.126 85.6975 106.126C87.5875 106.126 89.1196 104.803 89.1196 103.171V97.2601Z" fill="#3E3E3E"/>
<path d="M72.2306 170.64C71.1989 171.672 71.4446 173.59 72.7794 174.925C74.1142 176.26 76.0327 176.506 77.0644 175.474L80.8005 171.738C81.8322 170.706 81.5865 168.788 80.2517 167.453C78.9169 166.118 76.9985 165.872 75.9668 166.904L72.2306 170.64Z" fill="#3E3E3E"/>
<path d="M72.0215 83.9844C70.1338 83.9844 68.6035 85.5146 68.6035 87.4023C68.6035 89.29 70.1338 90.8203 72.0215 90.8203H99.3652C101.253 90.8203 102.783 89.29 102.783 87.4023C102.783 85.5146 101.253 83.9844 99.3652 83.9844H72.0215Z" fill="#3E3E3E"/>
<path d="M148.926 83.9844C147.038 83.9844 145.508 85.5146 145.508 87.4023C145.508 89.29 147.038 90.8203 148.926 90.8203H176.27C178.157 90.8203 179.687 89.29 179.687 87.4023C179.687 85.5146 178.157 83.9844 176.27 83.9844H148.926Z" fill="#3E3E3E"/>
<path d="M148.926 164.307C147.038 164.307 145.508 165.837 145.508 167.725C145.508 169.612 147.038 171.143 148.926 171.143H162.598C164.485 171.143 166.016 169.612 166.016 167.725C166.016 165.837 164.485 164.307 162.598 164.307H148.926Z" fill="#3E3E3E"/>
<path d="M173.236 164.406C171.796 164.406 170.628 165.892 170.628 167.725C170.628 169.557 171.796 171.043 173.236 171.043H177.147C178.587 171.043 179.754 169.557 179.754 167.725C179.754 165.892 178.587 164.406 177.147 164.406H173.236Z" fill="#3E3E3E"/>
<path d="M148.926 154.053C147.038 154.053 145.508 155.583 145.508 157.471C145.508 159.358 147.038 160.889 148.926 160.889H176.27C178.157 160.889 179.687 159.358 179.687 157.471C179.687 155.583 178.157 154.053 176.27 154.053H148.926Z" fill="#3E3E3E"/>
<path d="M78.4427 150.513C77.1079 149.178 74.9438 149.178 73.609 150.513C72.2742 151.848 72.2742 154.012 73.609 155.347L92.944 174.682C94.2788 176.017 96.4429 176.017 97.7777 174.682C99.1125 173.347 99.1125 171.183 97.7777 169.848L78.4427 150.513Z" fill="#3E3E3E"/>
<path d="M85.8837 157.574C84.5489 158.908 84.5489 161.072 85.8837 162.407C87.2185 163.742 89.3826 163.742 90.7174 162.407L97.7776 155.347C99.1124 154.012 99.1124 151.848 97.7776 150.513C96.4428 149.179 94.2787 149.179 92.9439 150.513L85.8837 157.574Z" fill="#3E3E3E"/>
<path d="M162.598 80.5664C164.485 80.5664 166.016 79.0361 166.016 77.1484C166.016 75.2607 164.485 73.7305 162.598 73.7305C160.71 73.7305 159.18 75.2607 159.18 77.1484C159.18 79.0361 160.71 80.5664 162.598 80.5664Z" fill="#3E3E3E"/>
<path d="M162.598 101.074C164.485 101.074 166.016 99.544 166.016 97.6563C166.016 95.7686 164.485 94.2383 162.598 94.2383C160.71 94.2383 159.18 95.7686 159.18 97.6563C159.18 99.544 160.71 101.074 162.598 101.074Z" fill="#3E3E3E"/>
</g>
<defs>
<clipPath id="clip0">
<rect width="170.898" height="170.898" fill="white" transform="translate(39.5508 39.5508)"/>
</clipPath>
</defs>
</svg>
