<svg width="360" height="390" viewBox="0 0 360 390" fill="none" xmlns="http://www.w3.org/2000/svg">
<g filter="url(#filter0_d_12_29)">
<path fill-rule="evenodd" clip-rule="evenodd" d="M77 16C43.3106 16 16 43.3106 16 77V305C16 338.689 43.3106 366 77 366H275C308.689 366 336 338.689 336 305V77C336 43.3106 308.689 16 275 16H77ZM100.5 126C121.211 126 138 109.211 138 88.5C138 67.7893 121.211 51 100.5 51C79.7893 51 63 67.7893 63 88.5C63 109.211 79.7893 126 100.5 126ZM287 89.5C287 110.211 270.211 127 249.5 127C228.789 127 212 110.211 212 89.5C212 68.7893 228.789 52 249.5 52C270.211 52 287 68.7893 287 89.5ZM287 292.5C287 313.211 270.211 330 249.5 330C228.789 330 212 313.211 212 292.5C212 271.789 228.789 255 249.5 255C270.211 255 287 271.789 287 292.5ZM138 291.5C138 312.211 121.211 329 100.5 329C79.7893 329 63 312.211 63 291.5C63 270.789 79.7893 254 100.5 254C121.211 254 138 270.789 138 291.5ZM100.5 228C121.211 228 138 211.211 138 190.5C138 169.789 121.211 153 100.5 153C79.7893 153 63 169.789 63 190.5C63 211.211 79.7893 228 100.5 228ZM288 190.5C288 211.211 271.211 228 250.5 228C229.789 228 213 211.211 213 190.5C213 169.789 229.789 153 250.5 153C271.211 153 288 169.789 288 190.5Z" fill="url(#paint0_linear_12_29)"/>
</g>
<defs>
<filter id="filter0_d_12_29" x="0" y="0" width="360" height="390" filterUnits="userSpaceOnUse" color-interpolation-filters="sRGB">
<feFlood flood-opacity="0" result="BackgroundImageFix"/>
<feColorMatrix in="SourceAlpha" type="matrix" values="0 0 0 0 0 0 0 0 0 0 0 0 0 0 0 0 0 0 127 0" result="hardAlpha"/>
<feOffset dx="4" dy="4"/>
<feGaussianBlur stdDeviation="10"/>
<feComposite in2="hardAlpha" operator="out"/>
<feColorMatrix type="matrix" values="0 0 0 0 0 0 0 0 0 0 0 0 0 0 0 0 0 0 0.1 0"/>
<feBlend mode="normal" in2="BackgroundImageFix" result="effect1_dropShadow_12_29"/>
<feBlend mode="normal" in="SourceGraphic" in2="effect1_dropShadow_12_29" result="shape"/>
</filter>
<linearGradient id="paint0_linear_12_29" x1="100" y1="89" x2="163.5" y2="353.5" gradientUnits="userSpaceOnUse">
<stop stop-color="#FFAD05"/>
<stop offset="1" stop-color="#FF0550"/>
</linearGradient>
</defs>
</svg>
