<svg width="250" height="250" viewBox="0 0 250 250" fill="none" xmlns="http://www.w3.org/2000/svg">
<rect width="250" height="250" rx="70" fill="#141414"/>
<path fill-rule="evenodd" clip-rule="evenodd" d="M156.809 200.664C157.655 200.664 158.466 200.314 159.065 199.691C159.663 199.068 160 198.222 160 197.34V181.819C160 180.937 159.664 180.091 159.065 179.467C158.467 178.844 157.655 178.493 156.809 178.493H132.128V132.372C132.128 131.49 131.791 130.644 131.193 130.021C130.595 129.397 129.783 129.047 128.936 129.047H114.043C113.197 129.047 112.385 129.397 111.787 130.021C111.188 130.644 110.852 131.49 110.852 132.372V197.341C110.852 198.223 111.188 199.069 111.787 199.693C112.385 200.316 113.197 200.667 114.043 200.667H156.809V200.664ZM121.915 66.7387C118.97 66.7385 116.09 67.6488 113.641 69.3542C111.191 71.0597 109.282 73.4838 108.155 76.32C107.028 79.1562 106.733 82.2771 107.307 85.2881C107.882 88.2991 109.3 91.0648 111.383 93.2357C113.466 95.4065 116.12 96.8849 119.009 97.4838C121.898 98.0828 124.893 97.7755 127.614 96.6007C130.336 95.4259 132.662 93.4364 134.298 90.8839C135.935 88.3313 136.809 85.3303 136.809 82.2604C136.809 78.1439 135.239 74.196 132.447 71.2852C129.654 68.3743 125.865 66.7389 121.915 66.7387ZM121.915 49C115.603 48.9999 109.433 50.9504 104.184 54.605C98.9359 58.2596 94.8452 63.4542 92.4296 69.5317C90.0139 75.6092 89.3818 82.2968 90.6132 88.7487C91.8445 95.2007 94.8841 101.127 99.3474 105.779C103.811 110.43 109.497 113.598 115.688 114.882C121.879 116.165 128.296 115.506 134.128 112.989C139.96 110.472 144.944 106.209 148.451 100.739C151.958 95.2693 153.83 88.8387 153.83 82.2604C153.83 73.4393 150.467 64.9795 144.482 58.742C138.497 52.5045 130.38 49.0002 121.915 49V49Z" fill="white"/>
</svg>
